<?xml version="1.0" standalone="no"?>
<!DOCTYPE svg PUBLIC "-//W3C//DTD SVG 20010904//EN"
 "http://www.w3.org/TR/2001/REC-SVG-20010904/DTD/svg10.dtd">
<svg version="1.0" xmlns="http://www.w3.org/2000/svg"
 width="250.000000pt" height="250.000000pt" viewBox="0 0 250.000000 250.000000"
 preserveAspectRatio="xMidYMid meet">
<metadata>
Created by potrace 1.11, written by Peter Selinger 2001-2013
</metadata>
<g transform="translate(0.000000,250.000000) scale(0.100000,-0.100000)"
fill="#000000" stroke="none">
<path d="M456 1886 c2 -244 8 -473 14 -509 39 -246 185 -480 405 -652 116 -90
273 -175 351 -191 38 -7 116 22 229 87 298 171 516 423 596 689 22 72 23 92
27 548 l3 472 -814 0 -814 0 3 -444z"/>
<path d="M94 793 c-35 -7 -50 -33 -69 -118 -10 -44 -19 -85 -22 -91 -6 -16 50
-54 87 -59 46 -6 57 2 76 51 9 24 20 44 24 44 16 0 18 -14 5 -40 -14 -26 -12
-30 41 -94 66 -80 89 -85 140 -29 19 21 32 43 30 50 -3 7 -1 13 4 13 6 0 10 6
10 13 0 15 57 36 78 29 19 -6 14 -25 -20 -76 -33 -51 -41 -103 -19 -130 32
-38 238 -112 406 -145 211 -42 477 -46 690 -11 144 24 347 85 437 131 13 7 30
15 38 19 17 8 27 80 11 80 -6 0 -7 7 -4 17 5 12 3 14 -7 8 -8 -5 -11 -4 -6 3
4 6 -4 23 -16 37 -13 15 -24 36 -24 47 -1 17 3 19 29 14 16 -3 36 -6 43 -6 8
0 21 -16 29 -36 23 -55 85 -102 117 -88 7 3 35 35 62 72 l48 66 -28 24 c-16
12 -24 22 -19 20 6 -1 20 3 31 10 19 10 23 8 39 -27 27 -61 89 -79 139 -40 20
16 26 28 23 48 -6 46 -30 111 -38 105 -5 -3 -6 2 -3 11 6 16 -23 71 -33 61 -3
-3 -11 1 -18 8 -10 10 -28 11 -72 4 -62 -9 -203 -72 -203 -90 0 -7 -15 -8 -47
-3 -83 13 -176 12 -242 -3 l-64 -14 6 -49 c4 -28 1 -60 -4 -73 -13 -29 1 -62
31 -71 32 -10 15 -22 -73 -48 -170 -52 -255 -62 -527 -62 -151 1 -230 5 -298
18 -102 19 -204 50 -241 74 l-23 15 31 19 c31 19 36 37 22 74 -5 11 -2 34 7
57 8 20 12 43 9 51 -13 34 -201 47 -313 21 -30 -7 -52 -8 -49 -3 7 11 -57 50
-115 71 -50 18 -114 27 -146 21z"/>
</g>
</svg>
